# xmcd
#
# Track frame offsets: 
#        150
#        15051
#        28461
#        39661
#        61389
#        76278
#        94631
#        106523
#        121501
#        137199
#        156393
#        168275
#        183359
#        197734
#        215275
#        234729
#        246614
#        265580
#
# Disc length: 3755 seconds
#
# Revision: 0
# Processed by: cddbd v1.4PL0 Copyright (c) Steve Scherf et al.
# Submitted via: ExactAudioCopy v0.95a3
#
DISCID=e90ea912
DTITLE=Various Artist - Jazz and Blues Blues By Five [CD1]
DYEAR=1998
DGENRE=Blues
TTITLE0=Brownie McGhee&Sonny Terry/Down by the Riverside
TTITLE1=Lightnin' Hopkins/Mojo Hand
TTITLE2=Lightning Slim/My Babe
TTITLE3=Brownie McGhee&Sonny Terry/Blues for the Lowlands
TTITLE4=Leadbelly/The House of the Rising Sun (in New Orleans)
TTITLE5=Brownie McGhee&Sonny Terry/I'm a Stranger Here
TTITLE6=Lightning Slim/Lightning's Bad Luck
TTITLE7=Brownie McGhee&Sonny Terry/Walk On
TTITLE8=Lightnin' Hopkins/Coffee For Mama
TTITLE9=Brownie McGhee&Sonny Terry/Betty and Dupree
TTITLE10=Jelly Roll Morton/Maple Leaf Rag
TTITLE11=Brownie McGhee&Sonny Terry/Ham and Eggs
TTITLE12=Jelly Roll Mortion/Jelly Roll Blues
TTITLE13=Brownie McGhee&Sonny Terry/Rock me Momma
TTITLE14=Leadbelly/John Hardy
TTITLE15=Brownie McGhee&Sonny Terry/Long John
TTITLE16=Lightnin' Hopkins/Good Times
TTITLE17=Brownie McGhee&Sonny Terry/Chain Gang Blues
EXTD=
EXTT0=
EXTT1=
EXTT2=
EXTT3=
EXTT4=
EXTT5=
EXTT6=
EXTT7=
EXTT8=
EXTT9=
EXTT10=
EXTT11=
EXTT12=
EXTT13=
EXTT14=
EXTT15=
EXTT16=
EXTT17=
PLAYORDER=
